<svg width="16" height="16" viewBox="0 0 16 16" fill="none" xmlns="http://www.w3.org/2000/svg">
<path d="M4 2.75C4 2.33579 4.33579 2 4.75 2H12.75C12.8517 2 12.9487 2.02024 13.0371 2.05691C13.1235 2.09267 13.2046 2.1453 13.2754 2.21478L13.2852 2.22459C13.4181 2.35991 13.5 2.54538 13.5 2.75V10.75C13.5 11.1642 13.1642 11.5 12.75 11.5C12.3358 11.5 12 11.1642 12 10.75V4.56066L3.28033 13.2803C2.98744 13.5732 2.51256 13.5732 2.21967 13.2803C1.92678 12.9874 1.92678 12.5126 2.21967 12.2197L10.9393 3.5H4.75C4.33579 3.5 4 3.16421 4 2.75Z" fill="#D22020" fill-opacity="0.4"/>
</svg>
